<svg width="15" height="19" viewBox="0 0 15 19" fill="none" xmlns="http://www.w3.org/2000/svg">
<path fill-rule="evenodd" clip-rule="evenodd" d="M3.65933 7.38196H10.5457V5.24162C10.5457 3.34911 8.995 1.79847 7.10205 1.79847C5.20552 1.79847 3.65933 3.3451 3.65933 5.24162V7.38196ZM12.3441 7.47556C13.4147 7.77508 14.205 8.76145 14.205 9.92432V16.4576C14.205 17.8563 13.0613 19 11.6631 19H2.54237C1.14371 19 0 17.8563 0 16.4576V9.92432C0 8.76145 0.790255 7.77508 1.86042 7.47556V5.24162C1.86042 2.36141 4.22227 0 7.10205 0C9.98583 0 12.3441 2.35784 12.3441 5.24162V7.47556ZM7.10249 10.789C8.00551 10.789 8.73783 11.5213 8.73783 12.4239C8.73783 12.924 8.51318 13.3715 8.15973 13.671C7.96451 13.8368 7.86244 14.0566 7.86244 14.3128V14.8339C7.86244 15.2529 7.52013 15.5934 7.10205 15.5934C6.68396 15.5934 6.34255 15.252 6.34255 14.8339V14.3128C6.34255 14.0566 6.24048 13.8368 6.0457 13.671C5.69225 13.3715 5.46716 12.924 5.46716 12.4239C5.46716 11.5213 6.19992 10.789 7.10249 10.789Z" fill="#B4C1C8"/>
</svg>
