<svg width="36" height="33" viewBox="0 0 36 33" fill="none" xmlns="http://www.w3.org/2000/svg">
<path d="M29.9375 26.0015V22.8968H11.7365L12.1634 21.1115L28.618 20.3354L35.4484 5.74353L8.59319 4.50153L7.46762 0H0.443359V3.10444H5.02257L9.33027 19.7143L7.77808 26.0014L29.9375 26.0015Z" fill="white"/>
<path d="M13.638 29.6879C13.638 31.2954 12.3351 32.5986 10.7274 32.5986C9.11996 32.5986 7.81677 31.2954 7.81677 29.6879C7.81677 28.0805 9.11996 26.7773 10.7274 26.7773C12.3351 26.7773 13.638 28.0805 13.638 29.6879Z" fill="white"/>
<path d="M31.1015 29.6879C31.1015 31.2954 29.7986 32.5986 28.1909 32.5986C26.5835 32.5986 25.2803 31.2954 25.2803 29.6879C25.2803 28.0805 26.5835 26.7773 28.1909 26.7773C29.7986 26.7773 31.1015 28.0805 31.1015 29.6879Z" fill="white"/>
</svg>
