<svg width="132" height="41" viewBox="0 0 132 41" fill="none" xmlns="http://www.w3.org/2000/svg">
<path d="M40.7018 17.801V16.3091H35.0273V23.7685H36.6791V20.8913H40.249V19.3994H36.6791V17.801H40.7018V17.801Z" fill="#2F3446"/>
<path d="M46.6161 23.7685V16.3091H44.9644V23.7685H46.6161Z" fill="#2F3446"/>
<path d="M57.9917 23.7685V16.3091H56.3666V20.8913L52.8767 16.3091H51.3582V23.7685H52.9832V19.0264L56.6064 23.7685H57.9917Z" fill="#2F3446"/>
<path d="M68.3018 17.8276V16.3091H62.1211V17.8276H64.3856V23.7685H66.0373V17.8276H68.3018Z" fill="#2F3446"/>
<path d="M78.878 23.7685L77.0664 21.1044C78.0255 20.7581 78.6649 19.9855 78.6649 18.7867V18.76C78.6649 17.2149 77.5992 16.3091 75.8409 16.3091H72.4309V23.7685H74.0826V21.3708H75.3614L76.9599 23.7685H78.878ZM76.9865 18.8666C76.9865 19.506 76.5336 19.9322 75.7344 19.9322H74.0826V17.801H75.7077C76.507 17.801 76.9865 18.1473 76.9865 18.8666Z" fill="#2F3446"/>
<path d="M88.7084 23.7685V22.3033H84.659V20.7315H88.1756V19.2662H84.659V17.7743H88.6551V16.3091H83.0339V23.7685H88.7084Z" fill="#2F3446"/>
<path d="M99.658 23.7685V16.3091H98.0329V20.8913L94.5429 16.3091H93.0244V23.7685H94.6495V19.0264L98.2727 23.7685H99.658Z" fill="#2F3446"/>
<path d="M111.194 20.0388C111.194 17.9075 109.569 16.3091 107.224 16.3091H104.32V23.7685H107.224C109.569 23.7685 111.194 22.1434 111.194 20.0388ZM109.489 20.0654C109.489 21.3975 108.583 22.3033 107.251 22.3033H105.972V17.801H107.251C108.583 17.801 109.489 18.7068 109.489 20.0654Z" fill="#2F3446"/>
<path d="M121.21 23.7685V22.3033H117.161V20.7315H120.678V19.2662H117.161V17.7743H121.157V16.3091H115.536V23.7685H121.21Z" fill="#2F3446"/>
<path d="M132 23.7685L130.188 21.1044C131.147 20.7581 131.787 19.9855 131.787 18.7867V18.76C131.787 17.2149 130.721 16.3091 128.963 16.3091H125.553V23.7685H127.204V21.3708H128.483L130.082 23.7685H132ZM130.108 18.8666C130.108 19.506 129.655 19.9322 128.856 19.9322H127.204V17.801H128.83C129.629 17.801 130.108 18.1473 130.108 18.8666Z" fill="#2F3446"/>
<path d="M16.0715 23.5274H15.6721V23.9268V31.7022C15.6721 35.6431 12.5832 38.8651 8.72217 39.0781V24.3263C10.7725 24.2197 12.2104 23.3144 13.5685 21.9297C14.9797 20.5185 15.6188 18.6279 15.6987 16.5509H23.3942C23.2876 18.4149 22.4888 20.119 21.2639 21.3706C19.9592 22.702 18.1218 23.5274 16.0715 23.5274Z" stroke="#2F3446" stroke-width="2"/>
<path d="M8.74881 16.3111V16.2844V16.2578V8.37594V1H16.0981H23.8469H31.1695C30.9565 4.88768 27.7612 7.97652 23.8469 7.97652H16.0715H15.6721V8.37594V16.5507H8.69556L8.74881 16.3111Z" stroke="#2F3446" stroke-width="2"/>
<path d="M1 23.5274V16.5509H8.74873C8.61559 18.4149 7.65698 20.0924 6.21908 21.3439C4.78117 22.5954 2.89058 23.4209 1 23.5274Z" stroke="#2F3446" stroke-width="2"/>
</svg>
